<?xml version="1.0" encoding="UTF-8" standalone="no"?>
<!-- Created with Inkscape (http://www.inkscape.org/) -->

<svg
   width="210mm"
   height="297mm"
   viewBox="0 0 210 297"
   version="1.1"
   id="svg5"
   inkscape:version="1.1.1 (3bf5ae0d25, 2021-09-20)"
   sodipodi:docname="password.svg"
   xmlns:inkscape="http://www.inkscape.org/namespaces/inkscape"
   xmlns:sodipodi="http://sodipodi.sourceforge.net/DTD/sodipodi-0.dtd"
   xmlns="http://www.w3.org/2000/svg"
   xmlns:svg="http://www.w3.org/2000/svg">
  <sodipodi:namedview
     id="namedview7"
     pagecolor="#ffffff"
     bordercolor="#666666"
     borderopacity="1.0"
     inkscape:pageshadow="2"
     inkscape:pageopacity="0.0"
     inkscape:pagecheckerboard="0"
     inkscape:document-units="mm"
     showgrid="false"
     inkscape:zoom="0.65638516"
     inkscape:cx="392.30015"
     inkscape:cy="336.69256"
     inkscape:window-width="1366"
     inkscape:window-height="707"
     inkscape:window-x="0"
     inkscape:window-y="0"
     inkscape:window-maximized="1"
     inkscape:current-layer="layer1" />
  <defs
     id="defs2" />
  <g
     inkscape:label="Katman 1"
     inkscape:groupmode="layer"
     id="layer1">
    <rect
       style="fill:#00ffff;fill-rule:evenodd;stroke-width:0.906156"
       id="rect31"
       width="202.88742"
       height="165.73987"
       x="3.7367375"
       y="19.791103" />
    <ellipse
       style="fill:#2b0000;stroke-width:0.264583"
       id="path167"
       cx="81.873718"
       cy="50.995903"
       rx="3.2369664"
       ry="3.1578622" />
    <ellipse
       style="fill:#008080;stroke-width:0.264583"
       id="path213"
       cx="96.025085"
       cy="77.685547"
       rx="3.1950984"
       ry="3.6560712" />
    <ellipse
       style="fill:#800080;stroke-width:0.264583"
       id="path325"
       cx="99.5811"
       cy="108.76233"
       rx="2.4588919"
       ry="2.8623216" />
    <ellipse
       style="fill:#ff8080;stroke-width:0.264583"
       id="path349"
       cx="116.68462"
       cy="96.632454"
       rx="3.4807427"
       ry="2.1201518" />
    <text
       xml:space="preserve"
       style="font-style:normal;font-weight:normal;font-size:45.7477px;line-height:1.25;font-family:sans-serif;fill:#000000;fill-opacity:1;stroke:none;stroke-width:1.1437"
       x="16.609762"
       y="145.37511"
       id="text5743"
       transform="scale(0.86264962,1.1592192)"><tspan
         id="tspan5741"
         style="stroke-width:1.1437"
         x="16.609762"
         y="145.37511"
         sodipodi:role="line">Password</tspan></text>
    <text
       xml:space="preserve"
       style="font-style:normal;font-weight:normal;font-size:37.7137px;line-height:1.25;font-family:sans-serif;fill:#000000;fill-opacity:1;stroke:none;stroke-width:0.942845"
       x="188.29643"
       y="59.396271"
       id="text15642"
       transform="scale(0.94359541,1.0597762)"><tspan
         sodipodi:role="line"
         id="tspan15640"
         style="stroke-width:0.942845"
         x="188.29643"
         y="59.396271">1</tspan><tspan
         sodipodi:role="line"
         style="stroke-width:0.942845"
         x="188.29643"
         y="106.53835"
         id="tspan15644">0</tspan></text>
    <text
       xml:space="preserve"
       style="font-style:normal;font-weight:normal;font-size:41.8533px;line-height:1.25;font-family:sans-serif;fill:#000000;fill-opacity:1;stroke:none;stroke-width:1.04633"
       x="10.728888"
       y="63.369629"
       id="text18198"
       transform="scale(1.0097066,0.99038669)"><tspan
         sodipodi:role="line"
         style="stroke-width:1.04633"
         id="tspan18200"
         x="10.728888"
         y="63.369629">0</tspan><tspan
         sodipodi:role="line"
         style="stroke-width:1.04633"
         x="10.728888"
         y="115.68625"
         id="tspan18204">1</tspan><tspan
         sodipodi:role="line"
         style="stroke-width:1.04633"
         x="10.728888"
         y="168.00287"
         id="tspan18206" /></text>
    <ellipse
       style="fill:#916f6f;stroke-width:0.264583"
       id="path20042"
       cx="134.06657"
       cy="72.783821"
       rx="4.2940116"
       ry="5.223032" />
    <ellipse
       style="fill:#ff0000;stroke-width:0.264583"
       id="path20066"
       cx="71.265625"
       cy="103.84304"
       rx="3.1531508"
       ry="4.5872426" />
    <path
       sodipodi:type="spiral"
       style="fill:none;fill-rule:evenodd;stroke:#000000"
       id="path20113"
       sodipodi:cx="526.92767"
       sodipodi:cy="333.45456"
       sodipodi:expansion="1"
       sodipodi:revolution="3"
       sodipodi:radius="98.898804"
       sodipodi:argument="-18.418528"
       sodipodi:t0="0"
       d="m 526.92767,333.45456 c 4.5051,2.07174 -0.57001,7.0949 -3.44337,7.48776 -7.78662,1.06464 -12.35337,-7.72396 -11.53216,-14.3745 1.46897,-11.89627 14.44488,-18.02718 25.30564,-15.57656 15.93861,3.59639 23.82302,21.2403 19.62095,36.23678 -5.60068,19.98795 -28.05998,29.66807 -47.16791,23.66535 -24.04538,-7.55382 -35.53802,-34.8907 -27.70974,-58.09905 9.48111,-28.10842 41.72752,-41.4223 69.03019,-31.75414 32.17524,11.3936 47.31554,48.56813 35.79852,79.96132 -13.29684,36.24469 -55.41126,53.21477 -90.89245,39.84293 -40.31598,-15.19395 -59.11819,-62.25619 -43.88732,-101.82359 17.08674,-44.38865 69.10241,-65.02466 112.75473,-47.93172 48.46234,18.97641 70.93341,75.94962 51.97611,123.68586"
       transform="matrix(0.72988642,0,0,0.63804085,-283.25551,-132.48692)" />
    <ellipse
       style="fill:#ff8080;stroke-width:0.264583"
       id="path20352"
       cx="55.046642"
       cy="83.645584"
       rx="5.1824846"
       ry="5.522089" />
    <ellipse
       style="fill:#782121;stroke-width:0.264583"
       id="path20376"
       cx="122.94276"
       cy="46.50473"
       rx="9.0986032"
       ry="3.5987499" />
    <ellipse
       style="fill:#ffb380;stroke-width:0.264583"
       id="path20498"
       cx="141.84654"
       cy="106.378"
       rx="7.4114699"
       ry="8.2362776" />
    <ellipse
       style="fill:#800000;stroke-width:0.264583"
       id="path20650"
       cx="62.127041"
       cy="51.966042"
       rx="4.5436988"
       ry="6.5973773" />
    <path
       sodipodi:type="star"
       style="fill:#800000"
       id="path20696"
       inkscape:flatsided="false"
       sodipodi:sides="5"
       sodipodi:cx="586.29486"
       sodipodi:cy="175.24451"
       sodipodi:r1="33.658779"
       sodipodi:r2="16.82939"
       sodipodi:arg1="1.8349369"
       sodipodi:arg2="2.4632554"
       inkscape:rounded="0"
       inkscape:randomized="0"
       d="m 577.50724,207.73591 -4.31603,-21.93097 -20.51303,-8.87757 19.52386,-10.88182 2.10419,-22.25237 16.38244,15.20563 21.81349,-4.87516 -9.39896,20.27942 11.37729,19.23936 -22.19132,-2.67226 z"
       transform="scale(0.26458333)"
       inkscape:transform-center-x="0.71848469"
       inkscape:transform-center-y="0.13759192" />
    <path
       sodipodi:type="star"
       style="fill:#ffaaaa"
       id="path20698"
       inkscape:flatsided="false"
       sodipodi:sides="5"
       sodipodi:cx="242.89008"
       sodipodi:cy="260.72946"
       sodipodi:r1="36.722458"
       sodipodi:r2="18.361231"
       sodipodi:arg1="-0.85481073"
       sodipodi:arg2="-0.2264922"
       inkscape:rounded="0"
       inkscape:randomized="0"
       d="m 266.99328,233.02432 -6.21092,23.58193 15.90517,18.48536 -24.34703,1.38029 -12.66565,20.83899 -8.83638,-22.72886 -23.73296,-5.60615 18.88584,-15.42749 -2.00213,-24.30379 20.50847,13.19414 z"
       transform="scale(0.26458333)"
       inkscape:transform-center-x="0.26288025"
       inkscape:transform-center-y="0.67423268" />
  </g>
</svg>
